<svg xmlns="http://www.w3.org/2000/svg" version="1.1" xmlns:xlink="http://www.w3.org/1999/xlink" xmlns:svgjs="http://svgjs.dev/svgjs" width="1500" height="1500" viewBox="0 0 1500 1500"><rect width="1500" height="1500" fill="#444444"></rect><g transform="matrix(0.6666666666666666,0,0,0.6666666666666666,249.39393939393938,521.935050948361)"><svg viewBox="0 0 396 181" data-background-color="#444444" preserveAspectRatio="xMidYMid meet" height="685" width="1500" xmlns="http://www.w3.org/2000/svg" xmlns:xlink="http://www.w3.org/1999/xlink"><g id="tight-bounds" transform="matrix(1,0,0,1,0.2400000000000091,-0.10637420800000541)"><svg viewBox="0 0 395.52 181.212748416" height="181.212748416" width="395.52"><g><svg viewBox="0 0 395.52 181.212748416" height="181.212748416" width="395.52"><g transform="matrix(1,0,0,1,0,111.996748416)"><svg viewBox="0 0 395.52 69.216" height="69.216" width="395.52"><g id="textblocktransform"><svg viewBox="0 0 395.52 69.216" height="69.216" width="395.52" id="textblock"><g><svg viewBox="0 0 395.52 69.216" height="69.216" width="395.52"><g transform="matrix(1,0,0,1,0,0)"><svg width="395.52" viewBox="3 -38 219.99 38.5" height="69.216" data-palette-color="#ffffff"><path d="M28.83 0L24.33 0 24.33-22.53 25.8-34.98 25.68-35 21.83-23.03 17.5-12.5 15-12.5 10.6-23 6.5-35 6.35-34.98 8.2-22.53 8.2 0 3.7 0 3.7-32.25 3-37.5 8.35-38 14.5-23.75 16.28-17.5 18-23.75 23.65-37.5 28.83-38 28.83 0ZM48.72 0.43L48.72 0.43Q45.95 0.43 43.64-0.66 41.32-1.75 39.65-3.66 37.97-5.58 37.04-8.18 36.1-10.78 36.1-13.83L36.1-13.83Q36.1-16.85 37-19.44 37.9-22.03 39.55-23.91 41.2-25.8 43.54-26.86 45.87-27.93 48.72-27.93L48.72-27.93Q51.5-27.93 53.77-26.86 56.05-25.8 57.69-23.91 59.32-22.03 60.22-19.44 61.12-16.85 61.12-13.83L61.12-13.83Q61.12-10.78 60.26-8.18 59.4-5.58 57.79-3.66 56.17-1.75 53.87-0.66 51.57 0.43 48.72 0.43ZM56.37-13.15L56.37-13.15Q56.37-15.18 55.95-17.13 55.52-19.07 54.6-20.61 53.67-22.15 52.2-23.1 50.72-24.05 48.62-24.05L48.62-24.05Q46.62-24.05 45.15-23.23 43.67-22.4 42.72-21.03 41.77-19.65 41.31-17.9 40.85-16.15 40.85-14.3L40.85-14.3Q40.85-12.28 41.31-10.33 41.77-8.38 42.73-6.85 43.7-5.33 45.21-4.39 46.72-3.45 48.82-3.45L48.82-3.45Q50.8-3.45 52.23-4.28 53.67-5.1 54.59-6.46 55.5-7.83 55.94-9.56 56.37-11.3 56.37-13.15ZM88.34-27.5L92.72-28 83.45 0.5 78.3 0 69.37-27.5 73.95-28 79.92-9.53 81.25-3.73 82.5-9.53 88.34-27.5ZM115.27-27.5L115.27-9.83Q115.27-8.53 115.43-7.43 115.59-6.33 115.97-5.53 116.34-4.73 116.97-4.28 117.59-3.83 118.52-3.83L118.52-3.83Q119.74-3.83 120.91-4.03 122.07-4.23 122.99-4.49 123.92-4.75 124.53-4.98 125.14-5.2 125.29-5.25L125.29-5.25 126.27-1.4Q126.12-1.33 125.47-1.03 124.82-0.73 123.77-0.41 122.72-0.1 121.32 0.16 119.92 0.43 118.27 0.43L118.27 0.43Q115.82 0.43 114.31-0.38 112.79-1.18 111.94-2.59 111.09-4 110.81-5.93 110.52-7.85 110.52-10.08L110.52-10.08 110.52-23 111.52-24.5 108.02-23.5 102.99-23.5 102.49-27.5 115.27-27.5ZM110.37-32.5L110.37-37.5 115.42-37.5 115.42-32.5 110.37-32.5ZM153.12-5.9L155.84-3.23Q155.06-2.43 154.14-1.75 153.22-1.07 152.09-0.59 150.97-0.1 149.6 0.16 148.24 0.43 146.56 0.43L146.56 0.43Q143.24 0.43 140.81-0.75 138.39-1.93 136.81-3.9 135.24-5.88 134.49-8.43 133.74-10.98 133.74-13.75L133.74-13.75Q133.74-15.53 134.1-17.26 134.47-19 135.15-20.58 135.84-22.15 136.88-23.5 137.92-24.85 139.28-25.83 140.64-26.8 142.3-27.36 143.97-27.93 145.94-27.93L145.94-27.93Q148.64-27.93 150.81-27.05 152.99-26.18 154.52-24.6 156.04-23.03 156.87-20.81 157.69-18.6 157.69-15.95L157.69-15.95Q157.69-15.18 157.64-14.25 157.59-13.33 157.49-12.5L157.49-12.5 138.49-12.5Q138.49-10.58 139.09-8.94 139.69-7.3 140.73-6.11 141.77-4.93 143.18-4.25 144.59-3.58 146.24-3.58L146.24-3.58Q147.84-3.58 148.98-3.81 150.12-4.05 150.9-4.4 151.69-4.75 152.22-5.15 152.74-5.55 153.12-5.9L153.12-5.9ZM142.12-16.25L153.29-16.25 153.29-17.35Q153.29-18.78 152.73-19.98 152.17-21.18 151.2-22.06 150.24-22.95 148.98-23.45 147.72-23.95 146.31-23.95L146.31-23.95Q144.64-23.95 143.38-23.41 142.12-22.88 141.22-22.04 140.31-21.2 139.77-20.2 139.22-19.2 138.97-18.3L138.97-18.3 137.49-15.45 142.12-16.25ZM175.91-4L189.99-4 190.49 0 167.51 0 167.01-1.25 179.59-20.65 184.39-24.5 178.26-23.5 169.19-23.5 168.69-27.5 188.29-27.5 188.79-26.28 176.56-7 171.79-3 175.91-4ZM208.41-4L222.49-4 222.99 0 200.01 0 199.51-1.25 212.09-20.65 216.89-24.5 210.76-23.5 201.69-23.5 201.19-27.5 220.79-27.5 221.29-26.28 209.06-7 204.29-3 208.41-4Z" opacity="1" transform="matrix(1,0,0,1,0,0)" fill="#ffffff" class="wordmark-text-0" data-fill-palette-color="primary" id="text-0"></path></svg></g></svg></g></svg></g></svg></g><g transform="matrix(1,0,0,1,121.94264640464228,0)"><svg viewBox="0 0 151.63470719071543 95.656512" height="95.656512" width="151.63470719071543"><g><svg xmlns="http://www.w3.org/2000/svg" xmlns:xlink="http://www.w3.org/1999/xlink" version="1.1" x="8" y="0" viewBox="0.5000000000000002 10.9 71.03853870664699 50.1" enable-background="new 0 0 72 72" xml:space="preserve" height="95.656512" width="135.63470719071543" class="icon-icon-0" data-fill-palette-color="accent" id="icon-0"><g fill="#d1c800" data-fill-palette-color="accent"><path fill="#d1c800" d="M70.2 10.9H22.8c-0.6 0-1.1 0.4-1.3 1L8.8 59.4c-0.2 0.8 0.4 1.6 1.3 1.6h47.4c0.6 0 1.1-0.4 1.3-1l12.7-47.5C71.7 11.7 71.1 10.9 70.2 10.9zM19.6 53.1l-1 3.7c-0.2 0.6-0.7 1-1.3 1h-3.6c-0.9 0-1.5-0.8-1.3-1.6l1-3.7c0.2-0.6 0.7-1 1.3-1h3.6C19.2 51.4 19.9 52.2 19.6 53.1zM35.2 18.9l1-3.7c0.2-0.6 0.7-1 1.3-1h3.6c0.9 0 1.5 0.8 1.3 1.6l-1 3.7c-0.2 0.6-0.7 1-1.3 1h-3.6C35.6 20.6 34.9 19.8 35.2 18.9zM22.4 18.9l1-3.7c0.2-0.6 0.7-1 1.3-1h3.6c0.9 0 1.5 0.8 1.3 1.6l-1 3.7c-0.2 0.6-0.7 1-1.3 1h-3.6C22.8 20.6 22.2 19.8 22.4 18.9zM32.4 53.1l-1 3.7c-0.2 0.6-0.7 1-1.3 1h-3.6c-0.9 0-1.5-0.8-1.3-1.6l1-3.7c0.2-0.6 0.7-1 1.3-1h3.6C32 51.4 32.6 52.2 32.4 53.1zM45.1 53.1l-1 3.7c-0.2 0.6-0.7 1-1.3 1h-3.6c-0.9 0-1.5-0.8-1.3-1.6l1-3.7c0.2-0.6 0.7-1 1.3-1h3.6C44.7 51.4 45.3 52.2 45.1 53.1zM45.6 37.2l-11.7 9.3c-1.4 1.1-3 0.3-2.6-1.2l5-18.5c0.4-1.5 2.5-2.3 3.2-1.2l6.8 9.3C46.8 35.5 46.5 36.5 45.6 37.2zM47.9 18.9l1-3.7c0.2-0.6 0.7-1 1.3-1h3.6c0.9 0 1.5 0.8 1.3 1.6l-1 3.7c-0.2 0.6-0.7 1-1.3 1h-3.6C48.3 20.6 47.6 19.8 47.9 18.9zM57.8 53.1l-1 3.7c-0.2 0.6-0.7 1-1.3 1h-3.6c-0.9 0-1.5-0.8-1.3-1.6l1-3.7c0.2-0.6 0.7-1 1.3-1h3.6C57.4 51.4 58 52.2 57.8 53.1zM67.8 15.9l-1 3.7c-0.2 0.6-0.7 1-1.3 1h-3.6c-0.9 0-1.5-0.8-1.3-1.6l1-3.7c0.2-0.6 0.7-1 1.3-1h3.6C67.4 14.2 68 15 67.8 15.9z" data-fill-palette-color="accent"></path><path fill="#d1c800" d="M3.2 24.1h9.4c1 0 1.7-0.8 1.7-1.7 0-1-0.8-1.7-1.7-1.7H3.2c-1 0-1.7 0.8-1.7 1.7C1.5 23.4 2.3 24.1 3.2 24.1z" data-fill-palette-color="accent"></path><path fill="#d1c800" d="M2.2 33.2h7.4c1 0 1.7-0.8 1.7-1.7 0-1-0.8-1.7-1.7-1.7H2.2c-1 0-1.7 0.8-1.7 1.7C0.5 32.4 1.3 33.2 2.2 33.2z" data-fill-palette-color="accent"></path><path fill="#d1c800" d="M8.4 38.8H3.2c-1 0-1.7 0.8-1.7 1.7 0 1 0.8 1.7 1.7 1.7h5.2c1 0 1.7-0.8 1.7-1.7C10.1 39.6 9.3 38.8 8.4 38.8z" data-fill-palette-color="accent"></path><path fill="#d1c800" d="M5 47.9H2.2c-1 0-1.7 0.8-1.7 1.7 0 1 0.8 1.7 1.7 1.7H5c1 0 1.7-0.8 1.7-1.7C6.7 48.6 6 47.9 5 47.9z" data-fill-palette-color="accent"></path></g></svg></g></svg></g><g><rect width="121.94264640464228" height="6.241970310912" y="88.41454168908801" x="273.5773535953577" fill="#d1c800" data-fill-palette-color="accent"></rect><rect width="121.94264640464228" height="6.241970310912" y="88.41454168908801" x="0" fill="#d1c800" data-fill-palette-color="accent"></rect><rect width="121.94264640464228" height="6.241970310912" y="75.930601067264" x="273.5773535953577" fill="#d1c800" data-fill-palette-color="accent"></rect><rect width="121.94264640464228" height="6.241970310912" y="75.930601067264" x="0" fill="#d1c800" data-fill-palette-color="accent"></rect></g></svg></g><defs></defs></svg><rect width="395.52" height="181.212748416" fill="none" stroke="none" visibility="hidden"></rect></g></svg></g></svg>